<svg width="155" height="155" viewBox="0 0 155 155" fill="none" xmlns="http://www.w3.org/2000/svg">
<g clip-path="url(#clip0)">
<path d="M19.346 48.7884H15H140H135.654M19.346 48.7884H41.1188M19.346 48.7884L24.8537 58.0727M41.1188 48.7884H50.284M41.1188 48.7884L35.611 58.0727M50.284 48.7884H72.0568M50.284 48.7884L55.7917 58.0727M72.0568 48.7884H82.2117M72.0568 48.7884L66.5491 58.0727M82.2117 48.7884H103.985M82.2117 48.7884L87.7194 58.0727M103.985 48.7884H113.881M103.985 48.7884L98.4768 58.0727M113.881 48.7884H135.654M113.881 48.7884L119.389 58.0727M135.654 48.7884L130.146 58.0727M119.389 106.085V58.0727M119.389 58.0727H130.146M130.146 58.0727V106.085M73.778 25.8354L56.222 8.72814M73.778 25.8354H56.222M73.778 25.8354H89.3546M56.222 8.72814L44.7762 17.2818L56.222 25.8354M56.222 8.72814L62.5043 4H75.1119M56.222 25.8354H33.2874M89.3546 25.8354L75.1119 4M89.3546 25.8354H104.716M75.1119 4H91.8503L97.315 8.04041M104.716 25.8354L97.315 8.04041M104.716 25.8354H121.067L97.315 8.04041M24.8537 106.085V58.0727M24.8537 58.0727H35.611M35.611 106.085V58.0727M87.7194 106.085V58.0727M87.7194 58.0727H98.4768M98.4768 58.0727V106.085M55.7917 106.085V58.0727M55.7917 58.0727H66.5491M66.5491 58.0727V106.085M21.6695 36.8821H133.33M21.6695 118.679H133.33M15 106.816H140" stroke="#195E83" stroke-width="4.24312" stroke-linecap="round" stroke-linejoin="round"/>
<path d="M34.1784 133.367L28.8114 148H25.2474L19.8804 133.367H23.0251L27.0504 145.002L31.0547 133.367H34.1784ZM37.4266 135.002C36.9095 135.002 36.4762 134.841 36.1268 134.52C35.7914 134.184 35.6237 133.772 35.6237 133.283C35.6237 132.794 35.7914 132.388 36.1268 132.067C36.4762 131.731 36.9095 131.564 37.4266 131.564C37.9438 131.564 38.3701 131.731 38.7055 132.067C39.0549 132.388 39.2296 132.794 39.2296 133.283C39.2296 133.772 39.0549 134.184 38.7055 134.52C38.3701 134.841 37.9438 135.002 37.4266 135.002ZM38.8732 136.386V148H35.9381V136.386H38.8732ZM46.2176 148.189C45.2672 148.189 44.4146 148.021 43.6599 147.686C42.9052 147.336 42.3042 146.868 41.8569 146.281C41.4237 145.694 41.1861 145.044 41.1441 144.331H44.1002C44.1561 144.778 44.3727 145.149 44.7501 145.442C45.1414 145.736 45.6236 145.883 46.1966 145.883C46.7557 145.883 47.189 145.771 47.4965 145.547C47.8179 145.323 47.9787 145.037 47.9787 144.688C47.9787 144.31 47.783 144.031 47.3916 143.849C47.0143 143.653 46.4063 143.444 45.5677 143.22C44.7012 143.01 43.9884 142.794 43.4293 142.57C42.8842 142.346 42.409 142.004 42.0037 141.543C41.6123 141.082 41.4167 140.46 41.4167 139.677C41.4167 139.034 41.5984 138.447 41.9618 137.916C42.3391 137.385 42.8702 136.966 43.5551 136.658C44.2539 136.351 45.0715 136.197 46.008 136.197C47.3916 136.197 48.4958 136.546 49.3204 137.245C50.145 137.93 50.5992 138.859 50.6831 140.033H47.8738C47.8319 139.572 47.6362 139.209 47.2868 138.943C46.9514 138.664 46.4971 138.524 45.9241 138.524C45.393 138.524 44.9807 138.622 44.6872 138.817C44.4076 139.013 44.2679 139.286 44.2679 139.635C44.2679 140.026 44.4636 140.327 44.8549 140.537C45.2462 140.732 45.8542 140.935 46.6788 141.145C47.5174 141.354 48.2093 141.571 48.7543 141.794C49.2994 142.018 49.7676 142.367 50.159 142.843C50.5643 143.304 50.774 143.919 50.7879 144.688C50.7879 145.358 50.5992 145.959 50.2219 146.491C49.8585 147.022 49.3274 147.441 48.6286 147.748C47.9437 148.042 47.1401 148.189 46.2176 148.189ZM54.6857 135.002C54.1686 135.002 53.7353 134.841 53.3859 134.52C53.0505 134.184 52.8828 133.772 52.8828 133.283C52.8828 132.794 53.0505 132.388 53.3859 132.067C53.7353 131.731 54.1686 131.564 54.6857 131.564C55.2029 131.564 55.6292 131.731 55.9646 132.067C56.314 132.388 56.4887 132.794 56.4887 133.283C56.4887 133.772 56.314 134.184 55.9646 134.52C55.6292 134.841 55.2029 135.002 54.6857 135.002ZM56.1323 136.386V148H53.1972V136.386H56.1323ZM62.4494 138.796V144.415C62.4494 144.806 62.5403 145.093 62.722 145.275C62.9176 145.442 63.2391 145.526 63.6864 145.526H65.0491V148H63.2042C60.7303 148 59.4934 146.798 59.4934 144.394V138.796H58.1097V136.386H59.4934V133.513H62.4494V136.386H65.0491V138.796H62.4494ZM77.2082 148.147C76.1879 148.147 75.2654 147.972 74.4408 147.623C73.6302 147.273 72.9872 146.77 72.512 146.113C72.0368 145.456 71.7923 144.681 71.7783 143.786H74.923C74.9649 144.387 75.1746 144.862 75.5519 145.212C75.9433 145.561 76.4744 145.736 77.1453 145.736C77.8301 145.736 78.3682 145.575 78.7596 145.254C79.1509 144.918 79.3466 144.485 79.3466 143.954C79.3466 143.521 79.2138 143.164 78.9482 142.885C78.6827 142.605 78.3472 142.388 77.9419 142.235C77.5506 142.067 77.0055 141.885 76.3067 141.69C75.3563 141.41 74.5806 141.138 73.9796 140.872C73.3926 140.592 72.8824 140.18 72.4492 139.635C72.0299 139.076 71.8202 138.335 71.8202 137.413C71.8202 136.546 72.0368 135.792 72.4701 135.149C72.9034 134.506 73.5114 134.016 74.2941 133.681C75.0767 133.332 75.9712 133.157 76.9775 133.157C78.487 133.157 79.71 133.527 80.6464 134.268C81.5968 134.995 82.1209 136.015 82.2187 137.329H78.9902C78.9622 136.826 78.7456 136.413 78.3403 136.092C77.9489 135.757 77.4248 135.589 76.7679 135.589C76.1949 135.589 75.7336 135.736 75.3842 136.029C75.0488 136.323 74.8811 136.749 74.8811 137.308C74.8811 137.699 75.0069 138.028 75.2584 138.293C75.524 138.545 75.8454 138.755 76.2228 138.922C76.6142 139.076 77.1592 139.258 77.8581 139.467C78.8085 139.747 79.5842 140.026 80.1852 140.306C80.7862 140.585 81.3033 141.005 81.7366 141.564C82.1698 142.123 82.3865 142.857 82.3865 143.765C82.3865 144.548 82.1838 145.275 81.7785 145.945C81.3732 146.616 80.7792 147.154 79.9965 147.56C79.2138 147.951 78.2844 148.147 77.2082 148.147ZM84.1763 142.151C84.1763 140.977 84.4069 139.936 84.8682 139.027C85.3434 138.119 85.9793 137.42 86.776 136.931C87.5866 136.441 88.4881 136.197 89.4804 136.197C90.347 136.197 91.1017 136.372 91.7446 136.721C92.4015 137.07 92.9256 137.511 93.317 138.042V136.386H96.273V148H93.317V146.302C92.9396 146.847 92.4155 147.301 91.7446 147.665C91.0877 148.014 90.326 148.189 89.4595 148.189C88.4811 148.189 87.5866 147.937 86.776 147.434C85.9793 146.931 85.3434 146.225 84.8682 145.317C84.4069 144.394 84.1763 143.339 84.1763 142.151ZM93.317 142.193C93.317 141.48 93.1772 140.872 92.8977 140.369C92.6182 139.852 92.2408 139.46 91.7656 139.195C91.2904 138.915 90.7802 138.775 90.2352 138.775C89.6901 138.775 89.1869 138.908 88.7257 139.174C88.2645 139.439 87.8871 139.831 87.5936 140.348C87.3141 140.851 87.1743 141.452 87.1743 142.151C87.1743 142.85 87.3141 143.465 87.5936 143.996C87.8871 144.513 88.2645 144.911 88.7257 145.191C89.2009 145.47 89.704 145.61 90.2352 145.61C90.7802 145.61 91.2904 145.477 91.7656 145.212C92.2408 144.932 92.6182 144.541 92.8977 144.038C93.1772 143.521 93.317 142.906 93.317 142.193ZM102.075 132.486V148H99.1396V132.486H102.075ZM108.392 138.796V144.415C108.392 144.806 108.483 145.093 108.664 145.275C108.86 145.442 109.181 145.526 109.629 145.526H110.991V148H109.147C106.673 148 105.436 146.798 105.436 144.394V138.796H104.052V136.386H105.436V133.513H108.392V136.386H110.991V138.796H108.392ZM124.067 136.386V148H121.111V146.532C120.734 147.036 120.238 147.434 119.623 147.727C119.022 148.007 118.365 148.147 117.652 148.147C116.743 148.147 115.94 147.958 115.241 147.581C114.542 147.189 113.99 146.623 113.585 145.883C113.193 145.128 112.998 144.233 112.998 143.199V136.386H115.933V142.78C115.933 143.702 116.163 144.415 116.625 144.918C117.086 145.407 117.715 145.652 118.511 145.652C119.322 145.652 119.958 145.407 120.419 144.918C120.88 144.415 121.111 143.702 121.111 142.78V136.386H124.067ZM131.408 148.189C130.457 148.189 129.605 148.021 128.85 147.686C128.095 147.336 127.494 146.868 127.047 146.281C126.614 145.694 126.376 145.044 126.334 144.331H129.29C129.346 144.778 129.563 145.149 129.94 145.442C130.331 145.736 130.814 145.883 131.387 145.883C131.946 145.883 132.379 145.771 132.686 145.547C133.008 145.323 133.169 145.037 133.169 144.688C133.169 144.31 132.973 144.031 132.582 143.849C132.204 143.653 131.596 143.444 130.758 143.22C129.891 143.01 129.178 142.794 128.619 142.57C128.074 142.346 127.599 142.004 127.194 141.543C126.802 141.082 126.607 140.46 126.607 139.677C126.607 139.034 126.788 138.447 127.152 137.916C127.529 137.385 128.06 136.966 128.745 136.658C129.444 136.351 130.261 136.197 131.198 136.197C132.582 136.197 133.686 136.546 134.51 137.245C135.335 137.93 135.789 138.859 135.873 140.033H133.064C133.022 139.572 132.826 139.209 132.477 138.943C132.141 138.664 131.687 138.524 131.114 138.524C130.583 138.524 130.171 138.622 129.877 138.817C129.598 139.013 129.458 139.286 129.458 139.635C129.458 140.026 129.654 140.327 130.045 140.537C130.436 140.732 131.044 140.935 131.869 141.145C132.707 141.354 133.399 141.571 133.944 141.794C134.489 142.018 134.958 142.367 135.349 142.843C135.754 143.304 135.964 143.919 135.978 144.688C135.978 145.358 135.789 145.959 135.412 146.491C135.048 147.022 134.517 147.441 133.819 147.748C133.134 148.042 132.33 148.189 131.408 148.189Z" fill="#195E83"/>
</g>
<defs>
<clipPath id="clip0">
<rect width="155" height="155" fill="white"/>
</clipPath>
</defs>
</svg>
