<?xml version="1.0"?>
<svg xmlns="http://www.w3.org/2000/svg" xmlns:xlink="http://www.w3.org/1999/xlink" xmlns:svgjs="http://svgjs.com/svgjs" version="1.1" width="512" height="512" x="0" y="0" viewBox="0 0 512 512" style="enable-background:new 0 0 512 512" xml:space="preserve" class=""><g><g xmlns="http://www.w3.org/2000/svg" id="_23-direction" data-name="23-direction"><g id="outline"><path d="M256,136.15a12,12,0,0,0,12-12v-24a12,12,0,1,0-24,0v24A12,12,0,0,0,256,136.15Z" fill="#195e83" data-original="#000000" style=""/><path d="M92,228H80a12,12,0,0,0,0,24H92a12,12,0,0,0,0-24Z" fill="#195e83" data-original="#000000" style=""/><path d="M146.042,228H131.3a12,12,0,1,0,0,24h14.738a12,12,0,1,0,0-24Z" fill="#195e83" data-original="#000000" style=""/><path d="M203.3,230.87a67.186,67.186,0,0,0-17.652-2.849,12,12,0,0,0-.6,23.992,43.205,43.205,0,0,1,11.346,1.841A12,12,0,0,0,203.3,230.87Z" fill="#195e83" data-original="#000000" style=""/><path d="M251.152,269.1A105.36,105.36,0,0,0,241.1,255.86a12,12,0,0,0-17.891,16,81.455,81.455,0,0,1,7.754,10.217A12,12,0,1,0,251.152,269.1Z" fill="#195e83" data-original="#000000" style=""/><path d="M504.485,351.515l-96-96A12,12,0,0,0,388,264v35.936l-68-.364c-1.339,0-2.671.029-4,.072V124h36a12,12,0,0,0,8.485-20.485l-96-96a12,12,0,0,0-16.97,0l-96,96A12,12,0,0,0,160,124h36v56.073c-1.352-.044-2.706-.073-4.064-.073L124,180.365V144.43a12,12,0,0,0-20.485-8.486l-96,96a12,12,0,0,0,0,16.971l96,96A12,12,0,0,0,124,336.43V300.365L192,300a4,4,0,0,1,4,4V496a12,12,0,0,0,24,0V423.572a100.1,100.1,0,0,1,99.936-100l80,.428H400a12,12,0,0,0,12-12V292.971L479.029,360,412,427.029V408a12,12,0,0,0-11.936-12L320,395.572a28.032,28.032,0,0,0-28,28V496a12,12,0,0,0,24,0V423.572a3.991,3.991,0,0,1,3.936-4l68.064.364V456a12,12,0,0,0,20.485,8.485l96-96A12,12,0,0,0,504.485,351.515ZM188.971,100,256,32.971,323.029,100H304a12,12,0,0,0-12,12V230.759q-3.13-4.269-6.638-8.289A124.723,124.723,0,0,0,268,206.09V188.15a12,12,0,1,0-24,0v3.3a123.312,123.312,0,0,0-24-8.246V112a12,12,0,0,0-12-12ZM220,350.341V304a28.046,28.046,0,0,0-28.064-28l-80,.43a12,12,0,0,0-11.936,12v19.029L32.971,240.43,100,173.4v19.03a12,12,0,0,0,12.064,12s89.539-.085,94.231.6c48.452,6.953,85.068,48.857,85.676,97.74a122.98,122.98,0,0,0-24.88,8.675c-.057-.407-.1-.813-.164-1.22a12,12,0,0,0-23.721,3.644A67,67,0,0,1,244,324a12.009,12.009,0,0,0,.115,1.574A125.078,125.078,0,0,0,220,350.341Z" fill="#195e83" data-original="#000000" style=""/><path d="M256,464a12,12,0,0,0-12,12v12a12,12,0,0,0,24,0V476A12,12,0,0,0,256,464Z" fill="#195e83" data-original="#000000" style=""/><path d="M263.311,398.141a12,12,0,0,0-15.142,7.663,83.844,83.844,0,0,0-4,20.836,12,12,0,0,0,11.22,12.732q.385.024.768.024a12,12,0,0,0,11.964-11.245,59.833,59.833,0,0,1,2.853-14.869A12,12,0,0,0,263.311,398.141Z" fill="#195e83" data-original="#000000" style=""/><path d="M371.383,372a12,12,0,1,0,0-24H353.156a12,12,0,1,0,0,24Z" fill="#195e83" data-original="#000000" style=""/><path d="M308.8,375.135a12,12,0,1,0-7.674-22.74,83.647,83.647,0,0,0-19.082,9.283,12,12,0,1,0,13.146,20.078A59.738,59.738,0,0,1,308.8,375.135Z" fill="#195e83" data-original="#000000" style=""/><path d="M420,372h12a12,12,0,0,0,0-24H420a12,12,0,0,0,0,24Z" fill="#195e83" data-original="#000000" style=""/></g></g></g></svg>
